<svg xmlns="http://www.w3.org/2000/svg" xmlns:xlink="http://www.w3.org/1999/xlink" width="222" height="222" version="1.1" viewBox="0 0 222 222"><title>art</title><desc>Created with Sketch.</desc><g id="Page-1" fill="none" fill-rule="evenodd" stroke="none" stroke-width="1"><g id="Artboard-Copy-5"><g id="art" transform="translate(0.000000, -51.000000)"><rect id="Rectangle" width="222" height="222" x="0" y="51" fill="#3DAEFB" fill-rule="nonzero"/><g id="Group-2" transform="translate(22.000000, 0.000000)"><circle id="Oval" cx="80.5" cy="135.5" r="44.5" fill="#011D37"/><circle id="Oval-Copy" cx="94.5" cy="189.5" r="44.5" fill="#FFF"/><g id="Group" transform="translate(90.000000, 160.000000) rotate(23.000000) translate(-90.000000, -160.000000) translate(61.000000, -1.000000)"><rect id="Rectangle-2" width="57" height="322" x="0" y="0" fill="#011D37"/><rect id="Rectangle-2-Copy-10" width="28.3" height="322" x="29" y="0" fill="#FFF"/><rect id="Rectangle-2-Copy" width="3" height="322" x="3" y="0" fill="#3DAEFB"/><rect id="Rectangle-2-Copy-2" width="3" height="322" x="9" y="0" fill="#3DAEFB"/><rect id="Rectangle-2-Copy-3" width="3" height="322" x="15" y="0" fill="#3DAEFB"/><rect id="Rectangle-2-Copy-4" width="3" height="322" x="21" y="0" fill="#3DAEFB"/><rect id="Rectangle-2-Copy-5" width="3" height="322" x="27" y="0" fill="#3DAEFB"/><rect id="Rectangle-2-Copy-6" width="3" height="322" x="33" y="0" fill="#3DAEFB"/><rect id="Rectangle-2-Copy-7" width="3" height="322" x="39" y="0" fill="#3DAEFB"/><rect id="Rectangle-2-Copy-8" width="3" height="322" x="45" y="0" fill="#3DAEFB"/><rect id="Rectangle-2-Copy-9" width="3" height="322" x="51" y="0" fill="#3DAEFB"/></g></g></g></g></g></svg>